<svg data-v-fde0c5aa="" xmlns="http://www.w3.org/2000/svg" viewBox="0 0 300 300" class="font"><!----><defs data-v-fde0c5aa=""><!----></defs><rect data-v-fde0c5aa="" fill="#E1EAE7" x="0" y="0" width="300px" height="300px" class="logo-background-square"></rect><defs data-v-fde0c5aa=""><linearGradient data-v-fde0c5aa="" gradientTransform="rotate(25)" id="4bd8cee1-5db5-4bf2-9796-bb0141c6229a" x1="0%" y1="0%" x2="100%" y2="0%"><stop data-v-fde0c5aa="" offset="0%" stop-color="#041804" stop-opacity="1"></stop><stop data-v-fde0c5aa="" offset="100%" stop-opacity="1"></stop></linearGradient></defs><g data-v-fde0c5aa="" id="92720b9d-6439-425e-b07f-90e64855be76" fill="url(#4bd8cee1-5db5-4bf2-9796-bb0141c6229a)" transform="matrix(6.751463925732549,0,0,6.751463925732549,32.438360370986054,113.17076319055033)"><path d="M6.44 10.50L6.44 10.50L6.44 6.50C6.44 6.40 6.37 6.33 6.27 6.33L3.28 6.33C3.19 6.33 3.11 6.40 3.11 6.50L3.11 10.50C3.11 10.58 3.19 10.65 3.28 10.65C3.36 10.65 3.44 10.58 3.44 10.50L3.44 6.65L6.12 6.65L6.12 10.50C6.12 10.58 6.19 10.65 6.27 10.65C6.37 10.65 6.44 10.58 6.44 10.50ZM3.11 0.49L3.11 0.49L3.11 4.49C3.11 4.58 3.19 4.66 3.28 4.66L6.27 4.66C6.37 4.66 6.44 4.58 6.44 4.49L6.44 0.49C6.44 0.41 6.37 0.34 6.27 0.34C6.19 0.34 6.12 0.41 6.12 0.49L6.12 4.33L3.44 4.33L3.44 0.49C3.44 0.41 3.36 0.34 3.28 0.34C3.19 0.34 3.11 0.41 3.11 0.49ZM8.12 0.49L8.12 0.49L8.12 10.50C8.12 10.58 8.19 10.65 8.27 10.65C8.37 10.65 8.44 10.58 8.44 10.50L8.44 0.49C8.44 0.41 8.37 0.34 8.27 0.34C8.19 0.34 8.12 0.41 8.12 0.49ZM1.44 10.50L1.44 10.50L1.44 0.49C1.44 0.41 1.37 0.34 1.27 0.34C1.19 0.34 1.12 0.41 1.12 0.49L1.12 10.50C1.12 10.58 1.19 10.65 1.27 10.65C1.37 10.65 1.44 10.58 1.44 10.50ZM15.12 6.33L15.12 6.33L12.87 6.33C12.77 6.33 12.70 6.40 12.70 6.50L12.70 10.50C12.70 10.71 13.03 10.71 13.03 10.50L13.03 6.66L15.12 6.66C15.33 6.66 15.33 6.33 15.12 6.33ZM16.04 2.34L16.04 2.34L12.87 2.34C12.77 2.34 12.70 2.41 12.70 2.49L12.70 4.49C12.70 4.58 12.77 4.66 12.87 4.66L15.12 4.66C15.33 4.66 15.33 4.33 15.12 4.33L13.03 4.33L13.03 2.66L16.04 2.66C16.25 2.66 16.25 2.34 16.04 2.34ZM11.03 10.50L11.03 10.50L11.03 0.66L16.04 0.66C16.25 0.66 16.25 0.34 16.04 0.34L10.86 0.34C10.78 0.34 10.70 0.41 10.70 0.49L10.70 10.50C10.70 10.71 11.03 10.71 11.03 10.50ZM24.64 0.64L24.64 0.64C24.00 0.38 23.31 0.24 22.61 0.24C20.12 0.24 18.52 1.58 17.82 3.32C17.28 4.65 17.28 6.22 17.82 7.56C18.52 9.28 20.12 10.63 22.61 10.63C23.31 10.63 24.00 10.50 24.64 10.23C24.72 10.19 24.77 10.11 24.72 10.01C24.70 9.94 24.58 9.90 24.51 9.93C23.91 10.19 23.27 10.30 22.61 10.30C20.26 10.30 18.76 9.06 18.10 7.43C17.60 6.17 17.60 4.70 18.10 3.43C18.76 1.83 20.26 0.56 22.61 0.56C23.27 0.56 23.91 0.69 24.51 0.94C24.58 0.97 24.70 0.94 24.72 0.85C24.75 0.77 24.72 0.67 24.64 0.64ZM24.25 7.88L24.25 7.88C23.70 8.19 23.24 8.30 22.61 8.30C21.27 8.30 20.43 7.57 20.05 6.62C19.75 5.88 19.75 5.00 20.05 4.26C20.43 3.32 21.27 2.58 22.61 2.58C23.24 2.58 23.70 2.69 24.25 2.98C24.33 3.02 24.42 3.00 24.46 2.93C24.50 2.84 24.47 2.74 24.40 2.70C23.80 2.37 23.30 2.25 22.61 2.25C21.13 2.25 20.16 3.08 19.75 4.14C19.43 4.96 19.43 5.91 19.75 6.73C20.16 7.80 21.13 8.61 22.61 8.61C23.30 8.61 23.80 8.50 24.40 8.16C24.47 8.12 24.50 8.02 24.46 7.95C24.42 7.87 24.33 7.84 24.25 7.88ZM30.27 4.65L30.27 4.65C30.93 4.65 31.46 4.16 31.46 3.50C31.46 2.83 30.93 2.34 30.27 2.34L28.50 2.34C28.29 2.34 28.29 2.66 28.50 2.66L30.27 2.66C30.74 2.66 31.14 3.01 31.14 3.50C31.14 3.98 30.74 4.34 30.27 4.34L29.71 4.34C29.61 4.34 29.54 4.41 29.54 4.49C29.54 4.58 29.61 4.65 29.71 4.65ZM31.23 10.40L31.23 10.40L28.63 6.93C28.57 6.86 28.48 6.85 28.41 6.89C28.36 6.93 28.34 6.99 28.35 7.03L28.35 10.50C28.35 10.58 28.42 10.67 28.50 10.67C28.59 10.67 28.67 10.58 28.67 10.50L28.67 7.50L30.97 10.58C31.02 10.67 31.14 10.68 31.21 10.63C31.28 10.57 31.29 10.47 31.23 10.40ZM26.67 10.50L26.67 10.50L26.67 0.66L30.44 0.66C32.00 0.66 33.24 1.95 33.24 3.50C33.24 5.04 32.00 6.33 30.44 6.33C30.35 6.33 30.28 6.40 30.28 6.50C30.28 6.54 30.30 6.58 30.32 6.61L33.40 10.58C33.47 10.67 33.57 10.68 33.64 10.61C33.71 10.57 33.73 10.47 33.67 10.40L30.77 6.65C32.37 6.48 33.57 5.10 33.57 3.50C33.57 1.76 32.19 0.32 30.44 0.32L26.50 0.32C26.42 0.32 26.35 0.41 26.35 0.49L26.35 10.50C26.35 10.58 26.42 10.67 26.50 10.67C26.60 10.67 26.67 10.58 26.67 10.50Z"></path></g><!----><!----></svg>